<svg xmlns="http://www.w3.org/2000/svg" width="24" height="24" viewBox="0 0 24 24"><path fill-rule="evenodd" clip-rule="evenodd" fill="#AAB2BF" d="M22.193 19.093c-2.201 2.981-6.032 4.853-10.145 4.817-4.112.035-7.944-1.836-10.144-4.817l-1.827 1.825v-5.983h5.985l-1.643 1.645c1.318 2.184 3.527 3.753 6.134 4.198v-9.046c-2.577-.668-4.49-2.987-4.49-5.772 0-3.304 2.68-5.983 5.985-5.983 3.306 0 5.985 2.679 5.985 5.983 0 2.785-1.911 5.104-4.489 5.772v9.046c2.607-.445 4.816-2.015 6.135-4.198l-1.646-1.646h5.985v5.983l-1.825-1.824zm-7.152-13.133c0-1.652-1.34-2.992-2.992-2.992-1.653 0-2.993 1.339-2.993 2.992 0 1.652 1.34 2.992 2.993 2.992 1.652 0 2.992-1.34 2.992-2.992z"/></svg>