<svg xmlns="http://www.w3.org/2000/svg" width="24" height="24" viewBox="0 0 24 24"><path fill-rule="evenodd" clip-rule="evenodd" fill="#AAB2BF" d="M12.036.594c-6.604 0-11.957 5.217-11.957 11.652s5.353 11.651 11.957 11.651c6.604 0 11.958-5.216 11.958-11.651s-5.354-11.652-11.958-11.652zm9.918 11.615c-1.523-.343-2.951-.507-4.268-.507-1.067 0-2.06.103-2.989.28-.289-.701-.582-1.361-.879-1.988 2.128-.865 4.166-2.141 5.753-4.02 1.476 1.682 2.373 3.857 2.383 6.235zm-3.475-7.298c-1.388 1.73-3.292 2.927-5.328 3.737-1.476-2.831-2.906-4.728-3.738-5.716.837-.223 1.713-.354 2.622-.354 2.462 0 4.709.883 6.444 2.333zm-10.593-1.434c.626.698 2.18 2.576 3.814 5.676-3.148.976-6.356 1.175-8.202 1.164-.519 0-.917-.014-1.18-.026.643-3.034 2.753-5.543 5.568-6.814zm-5.77 8.769l.024-.472c.282.014.747.032 1.359.032 1.962-.012 5.432-.178 8.885-1.29.275.576.548 1.187.816 1.832-2.389.715-4.254 1.932-5.618 3.144-1.479 1.312-2.393 2.611-2.824 3.303-1.634-1.726-2.642-4.022-2.642-6.549zm3.788 7.583l.077-.129c.625-1.033 3.058-4.592 7.768-5.963.805 2.145 1.531 4.624 2.069 7.441-1.168.471-2.444.733-3.783.733-2.314.001-4.442-.781-6.131-2.082zm11.329.635c-.529-2.649-1.224-5.005-1.988-7.071.764-.129 1.574-.203 2.441-.201 1.258 0 2.64.164 4.143.519-.447 2.852-2.174 5.294-4.596 6.753z"/></svg>