<svg xmlns="http://www.w3.org/2000/svg" width="128" height="128" viewBox="0 0 128 128"><g fill="#AAB2BF"><rect x="43.248" y="110.693" width="10.376" height="10.375"/><rect x="32.871" y="100.316" width="10.377" height="10.377"/><rect x="22.496" y="6.931" width="10.375" height="10.376"/><rect x="74.376" y="110.693" width="10.376" height="10.375"/><rect x="84.752" y="100.316" width="10.377" height="10.377"/><path d="M115.881 69.188v-10.376h-10.376v-31.128999999999998h-10.376v-10.375h-10.377v10.375h-41.504v-10.375h-10.377v10.375h-10.375v31.128999999999998h-10.377v10.375h-10.376v31.128999999999998h10.376v-20.752h10.377v20.752h10.375v-10.375h62.258v10.375h10.376v-20.752h10.376v20.752h10.376v-31.128h-10.376zm-83.01 0v-20.752h10.377v20.751h-10.377zm51.881 0v-20.752h10.377v20.751h-10.377z"/><rect x="95.129" y="6.931" width="10.376" height="10.376"/></g></svg>