<svg xmlns="http://www.w3.org/2000/svg" width="24" height="24" viewBox="0 0 24 24"><path fill-rule="evenodd" clip-rule="evenodd" fill="#AAB2BF" d="M16.332 2.167c1.909-.032 2.924.65 3.895 1.517.822-.069 1.891-.521 2.521-.834l.614-.33c-.361.955-.851 1.702-1.601 2.269-.164.125-.331.296-.54.376v.011c1.07-.011 1.95-.484 2.788-.741v.012c-.439.686-1.034 1.382-1.67 1.881l-.768.599c.014 1.11-.019 2.17-.229 3.104-1.229 5.423-4.488 9.107-9.646 10.683-1.852.568-4.846.8-6.967.282-1.053-.256-2.003-.545-2.895-.928-.496-.213-.955-.442-1.394-.705l-.433-.259c.479.014 1.039.143 1.574.059.484-.075.958-.057 1.405-.152 1.114-.24 2.103-.558 2.955-1.046.413-.236 1.04-.517 1.333-.859-.553.012-1.054-.115-1.465-.259-1.593-.551-2.521-1.565-3.124-3.091.482.052 1.873.176 2.198-.094-.608-.033-1.192-.378-1.609-.635-1.282-.786-2.327-2.106-2.318-4.137l.505.235c.324.134.651.205 1.035.282.163.033.487.127.673.06h-.025c-.248-.283-.65-.473-.9-.776-.822-1.003-1.593-2.546-1.106-4.384.124-.466.32-.877.529-1.258l.024.013c.096.195.309.34.445.504.419.511.938.97 1.465 1.375 1.798 1.38 3.418 2.228 6.018 2.856.66.159 1.422.281 2.21.282-.221-.633-.149-1.656.024-2.269.438-1.539 1.39-2.649 2.787-3.244.333-.143.704-.246 1.093-.33l.599-.069z"/></svg>