<?xml version="1.0" encoding="utf-8"?>
<!-- Generator: Adobe Illustrator 16.0.0, SVG Export Plug-In . SVG Version: 6.00 Build 0)  -->
<!DOCTYPE svg PUBLIC "-//W3C//DTD SVG 1.1//EN" "http://www.w3.org/Graphics/SVG/1.1/DTD/svg11.dtd">
<svg version="1.1" id="Layer_1" xmlns="http://www.w3.org/2000/svg" xmlns:xlink="http://www.w3.org/1999/xlink" x="0px" y="0px"
	 width="24px" height="24px" viewBox="0 0 24 24" enable-background="new 0 0 24 24" xml:space="preserve">
<path fill-rule="evenodd" clip-rule="evenodd" fill="#AAB2BF" d="M22.193,19.093c-2.201,2.981-6.032,4.853-10.145,4.817
	c-4.112,0.035-7.944-1.836-10.144-4.817l-1.827,1.825v-5.983h5.985L4.419,16.58c1.318,2.184,3.527,3.753,6.134,4.198v-9.046
	C7.976,11.064,6.063,8.745,6.063,5.96c0-3.304,2.68-5.983,5.985-5.983c3.306,0,5.985,2.679,5.985,5.983
	c0,2.785-1.911,5.104-4.489,5.772v9.046c2.607-0.445,4.816-2.015,6.135-4.198l-1.646-1.646h5.985v5.983L22.193,19.093z M15.041,5.96
	c0-1.652-1.34-2.992-2.992-2.992c-1.653,0-2.993,1.339-2.993,2.992c0,1.652,1.34,2.992,2.993,2.992
	C13.701,8.952,15.041,7.612,15.041,5.96z"/>
</svg>
