<?xml version="1.0" encoding="utf-8"?>
<!-- Generator: Adobe Illustrator 16.0.0, SVG Export Plug-In . SVG Version: 6.00 Build 0)  -->
<!DOCTYPE svg PUBLIC "-//W3C//DTD SVG 1.1//EN" "http://www.w3.org/Graphics/SVG/1.1/DTD/svg11.dtd">
<svg version="1.1" id="Layer_1" xmlns="http://www.w3.org/2000/svg" xmlns:xlink="http://www.w3.org/1999/xlink" x="0px" y="0px"
	 width="24px" height="24px" viewBox="0 0 24 24" enable-background="new 0 0 24 24" xml:space="preserve">
<path fill-rule="evenodd" clip-rule="evenodd" fill="#AAB2BF" d="M12.036,0.594c-6.604,0-11.957,5.217-11.957,11.652
	s5.353,11.651,11.957,11.651c6.604,0,11.958-5.216,11.958-11.651S18.64,0.594,12.036,0.594z M21.954,12.209
	c-1.523-0.343-2.951-0.507-4.268-0.507c-1.067,0-2.06,0.103-2.989,0.28c-0.289-0.701-0.582-1.361-0.879-1.988
	c2.128-0.865,4.166-2.141,5.753-4.02C21.047,7.656,21.944,9.831,21.954,12.209z M18.479,4.911c-1.388,1.73-3.292,2.927-5.328,3.737
	c-1.476-2.831-2.906-4.728-3.738-5.716c0.837-0.223,1.713-0.354,2.622-0.354C14.497,2.578,16.744,3.461,18.479,4.911z M7.886,3.477
	c0.626,0.698,2.18,2.576,3.814,5.676c-3.148,0.976-6.356,1.175-8.202,1.164c-0.519,0-0.917-0.014-1.18-0.026
	C2.961,7.257,5.071,4.748,7.886,3.477z M2.116,12.246c0-0.16,0.016-0.315,0.024-0.472c0.282,0.014,0.747,0.032,1.359,0.032
	c1.962-0.012,5.432-0.178,8.885-1.29c0.275,0.576,0.548,1.187,0.816,1.832c-2.389,0.715-4.254,1.932-5.618,3.144
	c-1.479,1.312-2.393,2.611-2.824,3.303C3.124,17.069,2.116,14.773,2.116,12.246z M5.904,19.829c0.021-0.035,0.045-0.077,0.077-0.129
	c0.625-1.033,3.058-4.592,7.768-5.963c0.805,2.145,1.531,4.624,2.069,7.441c-1.168,0.471-2.444,0.733-3.783,0.733
	C9.721,21.912,7.593,21.13,5.904,19.829z M17.233,20.464c-0.529-2.649-1.224-5.005-1.988-7.071c0.764-0.129,1.574-0.203,2.441-0.201
	c1.258,0,2.64,0.164,4.143,0.519C21.382,16.563,19.655,19.005,17.233,20.464z"/>
</svg>
