<?xml version="1.0" encoding="utf-8"?>
<!-- Generator: Adobe Illustrator 16.0.0, SVG Export Plug-In . SVG Version: 6.00 Build 0)  -->
<!DOCTYPE svg PUBLIC "-//W3C//DTD SVG 1.1//EN" "http://www.w3.org/Graphics/SVG/1.1/DTD/svg11.dtd">
<svg version="1.1" id="Layer_1" xmlns="http://www.w3.org/2000/svg" xmlns:xlink="http://www.w3.org/1999/xlink" x="0px" y="0px"
	 width="128px" height="128px" viewBox="0 0 128 128" enable-background="new 0 0 128 128" xml:space="preserve">
<path fill="#AAB2BF" d="M123.312,105.567c0,0-5.932-19.864-8.541-28.72h0.472h5.162h3.252v-3.223v-5.19V20.123v-5.177v-3.266h-3.252
	h-5.162H9.849H4.672H1.479v3.266v5.177v87.812v5.146v3.238h3.193h5.177h8.713h5.134h3.272v-3.238v-5.146V76.848h58.5l9.954,33.495
	l1.112,3.678l0.677,2.299h2.444h3.837h11.75h6.923h4.356l-1.231-4.138L123.312,105.567z M98.152,51.337H26.968V37.206h71.185V51.337
	z"/>
</svg>
