<?xml version="1.0" encoding="utf-8"?>
<!-- Generator: Adobe Illustrator 16.0.0, SVG Export Plug-In . SVG Version: 6.00 Build 0)  -->
<!DOCTYPE svg PUBLIC "-//W3C//DTD SVG 1.1//EN" "http://www.w3.org/Graphics/SVG/1.1/DTD/svg11.dtd">
<svg version="1.1" id="Layer_1" xmlns="http://www.w3.org/2000/svg" xmlns:xlink="http://www.w3.org/1999/xlink" x="0px" y="0px"
	 width="128px" height="128px" viewBox="0 0 128 128" enable-background="new 0 0 128 128" xml:space="preserve">
<g>
	<rect x="43.248" y="110.693" fill="#AAB2BF" width="10.376" height="10.375"/>
	<rect x="32.871" y="100.316" fill="#AAB2BF" width="10.377" height="10.377"/>
	<rect x="22.496" y="6.931" fill="#AAB2BF" width="10.375" height="10.376"/>
	<rect x="74.376" y="110.693" fill="#AAB2BF" width="10.376" height="10.375"/>
	<rect x="84.752" y="100.316" fill="#AAB2BF" width="10.377" height="10.377"/>
	<path fill="#AAB2BF" d="M115.881,69.188V58.812h-10.376V48.436V38.06V27.683H95.129V17.308H84.752v10.375H64H43.248V17.308H32.871
		v10.375H22.496V38.06v10.376v10.376H12.119v10.375H1.743v10.377v20.752h10.376V79.564h10.377v20.752h10.375V89.941H64h31.129
		v10.375h10.376V79.564h10.376v20.752h10.376V79.564V69.188H115.881z M32.871,69.188V48.436h10.377v20.751H32.871z M84.752,69.188
		V48.436h10.377v20.751H84.752z"/>
	<rect x="95.129" y="6.931" fill="#AAB2BF" width="10.376" height="10.376"/>
</g>
</svg>
