<?xml version="1.0" encoding="utf-8"?>
<!-- Generator: Adobe Illustrator 16.0.0, SVG Export Plug-In . SVG Version: 6.00 Build 0)  -->
<!DOCTYPE svg PUBLIC "-//W3C//DTD SVG 1.1//EN" "http://www.w3.org/Graphics/SVG/1.1/DTD/svg11.dtd">
<svg version="1.1" id="Layer_1" xmlns="http://www.w3.org/2000/svg" xmlns:xlink="http://www.w3.org/1999/xlink" x="0px" y="0px"
	 width="24px" height="24px" viewBox="0 0 24 24" enable-background="new 0 0 24 24" xml:space="preserve">
<path fill-rule="evenodd" clip-rule="evenodd" fill="#AAB2BF" d="M16.332,2.167c1.909-0.032,2.924,0.65,3.895,1.517
	c0.822-0.069,1.891-0.521,2.521-0.834c0.206-0.11,0.409-0.22,0.614-0.33c-0.361,0.955-0.851,1.702-1.601,2.269
	c-0.164,0.125-0.331,0.296-0.54,0.376c0,0.004,0,0.007,0,0.011c1.07-0.011,1.95-0.484,2.788-0.741c0,0.003,0,0.008,0,0.012
	c-0.439,0.686-1.034,1.382-1.67,1.881c-0.257,0.199-0.513,0.399-0.768,0.599c0.014,1.11-0.019,2.17-0.229,3.104
	c-1.229,5.423-4.488,9.107-9.646,10.683c-1.852,0.568-4.846,0.8-6.967,0.282c-1.053-0.256-2.003-0.545-2.895-0.928
	c-0.496-0.213-0.955-0.442-1.394-0.705c-0.145-0.086-0.289-0.172-0.433-0.259c0.479,0.014,1.039,0.143,1.574,0.059
	c0.484-0.075,0.958-0.057,1.405-0.152c1.114-0.24,2.103-0.558,2.955-1.046c0.413-0.236,1.04-0.517,1.333-0.859
	c-0.553,0.012-1.054-0.115-1.465-0.259c-1.593-0.551-2.521-1.565-3.124-3.091c0.482,0.052,1.873,0.176,2.198-0.094
	c-0.608-0.033-1.192-0.378-1.609-0.635c-1.282-0.786-2.327-2.106-2.318-4.137c0.168,0.078,0.336,0.156,0.505,0.235
	C1.785,9.259,2.112,9.33,2.496,9.407c0.163,0.033,0.487,0.127,0.673,0.06c-0.009,0-0.016,0-0.025,0
	c-0.248-0.283-0.65-0.473-0.9-0.776C1.422,7.688,0.651,6.145,1.138,4.307c0.124-0.466,0.32-0.877,0.529-1.258
	c0.007,0.004,0.016,0.008,0.024,0.013C1.787,3.257,2,3.402,2.136,3.566c0.419,0.511,0.938,0.97,1.465,1.375
	c1.798,1.38,3.418,2.228,6.018,2.856c0.66,0.159,1.422,0.281,2.21,0.282c-0.221-0.633-0.149-1.656,0.024-2.269
	c0.438-1.539,1.39-2.649,2.787-3.244c0.333-0.143,0.704-0.246,1.093-0.33C15.934,2.213,16.135,2.19,16.332,2.167z"/>
</svg>
